<svg width="18" height="18" viewBox="0 0 18 18" fill="none" xmlns="http://www.w3.org/2000/svg">
<path d="M16.875 16.0819L12.6281 11.8125C13.6434 10.5875 14.1478 9.01846 14.0365 7.43131C13.9252 5.84416 13.2068 4.36088 12.0305 3.28955C10.8542 2.21822 9.31037 1.6412 7.71976 1.67832C6.12914 1.71545 4.61396 2.36387 3.48891 3.48891C2.36387 4.61396 1.71545 6.12914 1.67832 7.71976C1.6412 9.31037 2.21822 10.8542 3.28955 12.0305C4.36088 13.2068 5.84416 13.9252 7.43131 14.0365C9.01846 14.1478 10.5875 13.6434 11.8125 12.6281L16.0819 16.875L16.875 16.0819ZM2.8125 7.875C2.8125 6.87373 3.10941 5.89495 3.66569 5.06243C4.22196 4.2299 5.01261 3.58103 5.93767 3.19786C6.86272 2.81469 7.88062 2.71444 8.86265 2.90978C9.84467 3.10511 10.7467 3.58727 11.4547 4.29527C12.1627 5.00328 12.6449 5.90533 12.8402 6.88736C13.0356 7.86938 12.9353 8.88728 12.5521 9.81234C12.169 10.7374 11.5201 11.528 10.6876 12.0843C9.85505 12.6406 8.87627 12.9375 7.875 12.9375C6.53234 12.9375 5.24468 12.4041 4.29527 11.4547C3.34587 10.5053 2.8125 9.21766 2.8125 7.875Z" fill="#105EFB"/>
</svg>
