<svg width="24" height="24" viewBox="0 0 24 24" fill="none" xmlns="http://www.w3.org/2000/svg">
<path d="M8 8.79999C8 7.73912 8.42143 6.72171 9.17157 5.97156C9.92172 5.22142 10.9391 4.79999 12 4.79999C13.0609 4.79999 14.0783 5.22142 14.8284 5.97156C15.5786 6.72171 16 7.73912 16 8.79999C16 9.86085 15.5786 10.8783 14.8284 11.6284C14.0783 12.3786 13.0609 12.8 12 12.8C10.9391 12.8 9.92172 12.3786 9.17157 11.6284C8.42143 10.8783 8 9.86085 8 8.79999Z" fill="white"/>
<path fill-rule="evenodd" clip-rule="evenodd" d="M12 0C8.8174 0 5.76516 1.26428 3.51472 3.51472C1.26428 5.76516 0 8.8174 0 12C0 15.1826 1.26428 18.2348 3.51472 20.4853C5.76516 22.7357 8.8174 24 12 24C15.1826 24 18.2348 22.7357 20.4853 20.4853C22.7357 18.2348 24 15.1826 24 12C24 8.8174 22.7357 5.76516 20.4853 3.51472C18.2348 1.26428 15.1826 0 12 0V0ZM1.6 12C1.60003 10.2795 2.02691 8.58584 2.84239 7.07085C3.65786 5.55586 4.83647 4.26686 6.27258 3.31934C7.70869 2.37183 9.35744 1.79541 11.0711 1.64173C12.7847 1.48805 14.5097 1.76193 16.0915 2.4388C17.6733 3.11568 19.0624 4.17442 20.1345 5.52014C21.2065 6.86586 21.9279 8.45652 22.234 10.1496C22.5402 11.8427 22.4215 13.5852 21.8886 15.2212C21.3558 16.8571 20.4254 18.3352 19.1808 19.5232C19.0614 18.1254 18.4216 16.8234 17.3882 15.8747C16.3547 14.926 15.0029 14.3997 13.6 14.4H10.4C8.99713 14.3997 7.64525 14.926 6.61181 15.8747C5.57837 16.8234 4.93864 18.1254 4.8192 19.5232C3.80043 18.5531 2.98967 17.3859 2.43625 16.0925C1.88283 14.7992 1.59831 13.4068 1.6 12V12Z" fill="white"/>
</svg>
