<svg width="92" height="92" viewBox="0 0 92 92" fill="none" xmlns="http://www.w3.org/2000/svg">
<path d="M46 5.75C38.0393 5.75 30.2574 8.11062 23.6383 12.5333C17.0192 16.9561 11.8603 23.2423 8.81387 30.597C5.76744 37.9517 4.97036 46.0446 6.52341 53.8524C8.07647 61.6601 11.9099 68.832 17.539 74.461C23.168 80.0901 30.3399 83.9236 38.1476 85.4766C45.9554 87.0297 54.0483 86.2326 61.403 83.1861C68.7578 80.1397 75.0439 74.9808 79.4667 68.3617C83.8894 61.7426 86.25 53.9607 86.25 46C86.25 35.325 82.0094 25.0873 74.4611 17.539C66.9127 9.99061 56.675 5.75 46 5.75V5.75ZM69 71.6421V69.8941C69.0799 65.9738 67.6191 62.1785 64.9312 59.3235C62.2434 56.4685 58.543 54.7815 54.625 54.625H37.375C33.4603 54.7823 29.7637 56.47 27.0807 59.3251C24.3977 62.1801 22.9427 65.9743 23.0288 69.8912C23.0288 69.9229 23 69.9545 23 69.9861V71.668C17.7845 67.0124 14.1057 60.8828 12.4507 54.0904C10.7956 47.298 11.2423 40.1632 13.7316 33.6302C16.2209 27.0973 20.6354 21.4743 26.3908 17.5056C32.1463 13.5369 38.9712 11.4096 45.9624 11.4052C52.9535 11.4008 59.7811 13.5196 65.5415 17.4812C71.3019 21.4427 75.7234 27.0601 78.2209 33.5899C80.7184 40.1197 81.1739 47.254 79.5274 54.0485C77.8808 60.8429 74.2097 66.9772 69 71.6392V71.6421Z" fill="black"/>
<path d="M46 20.125C43.1569 20.125 40.3776 20.9681 38.0137 22.5476C35.6497 24.1272 33.8072 26.3722 32.7192 28.9989C31.6312 31.6256 31.3466 34.5159 31.9012 37.3044C32.4559 40.0929 33.825 42.6543 35.8353 44.6647C37.8457 46.675 40.4071 48.0441 43.1956 48.5988C45.9841 49.1535 48.8744 48.8688 51.5011 47.7808C54.1278 46.6928 56.3728 44.8503 57.9524 42.4863C59.5319 40.1224 60.375 37.3431 60.375 34.5C60.375 30.6875 58.8605 27.0312 56.1647 24.3353C53.4688 21.6395 49.8125 20.125 46 20.125V20.125Z" fill="black"/>
</svg>
